<mxfile host="65bd71144e">
    <diagram id="Dn83BFYoQidH9E2KFeA1" name="Page-1">
        <mxGraphModel dx="1188" dy="658" grid="0" gridSize="10" guides="1" tooltips="1" connect="1" arrows="1" fold="1" page="1" pageScale="1" pageWidth="850" pageHeight="1100" math="0" shadow="0">
            <root>
                <mxCell id="0"/>
                <mxCell id="1" parent="0"/>
                <mxCell id="26" style="edgeStyle=none;html=1;entryX=0.5;entryY=0.167;entryDx=0;entryDy=0;entryPerimeter=0;" parent="1" source="3" target="5" edge="1">
                    <mxGeometry relative="1" as="geometry"/>
                </mxCell>
                <mxCell id="3" value="Start" style="strokeWidth=2;html=1;shape=mxgraph.flowchart.terminator;whiteSpace=wrap;" parent="1" vertex="1">
                    <mxGeometry x="220" y="200" width="100" height="60" as="geometry"/>
                </mxCell>
                <mxCell id="4" value="End" style="strokeWidth=2;html=1;shape=mxgraph.flowchart.terminator;whiteSpace=wrap;" parent="1" vertex="1">
                    <mxGeometry x="390" y="650" width="100" height="60" as="geometry"/>
                </mxCell>
                <mxCell id="14" style="edgeStyle=none;html=1;entryX=0.5;entryY=0;entryDx=0;entryDy=0;entryPerimeter=0;" parent="1" source="5" target="6" edge="1">
                    <mxGeometry relative="1" as="geometry"/>
                </mxCell>
                <mxCell id="5" value="Sales value :" style="html=1;strokeWidth=2;shape=manualInput;whiteSpace=wrap;rounded=1;size=26;arcSize=11;" parent="1" vertex="1">
                    <mxGeometry x="220" y="290" width="100" height="60" as="geometry"/>
                </mxCell>
                <mxCell id="15" style="edgeStyle=none;html=1;entryX=0.5;entryY=0;entryDx=0;entryDy=0;" parent="1" source="6" target="7" edge="1">
                    <mxGeometry relative="1" as="geometry"/>
                </mxCell>
                <mxCell id="25" style="edgeStyle=none;html=1;entryX=0.5;entryY=0;entryDx=0;entryDy=0;entryPerimeter=0;" parent="1" source="6" target="4" edge="1">
                    <mxGeometry relative="1" as="geometry">
                        <Array as="points">
                            <mxPoint x="440" y="430"/>
                        </Array>
                    </mxGeometry>
                </mxCell>
                <mxCell id="6" value="if sales &amp;gt; 5000:" style="strokeWidth=2;html=1;shape=mxgraph.flowchart.decision;whiteSpace=wrap;" parent="1" vertex="1">
                    <mxGeometry x="220" y="380" width="100" height="100" as="geometry"/>
                </mxCell>
                <mxCell id="19" style="edgeStyle=none;html=1;entryX=0.5;entryY=0;entryDx=0;entryDy=0;" parent="1" source="7" target="8" edge="1">
                    <mxGeometry relative="1" as="geometry"/>
                </mxCell>
                <mxCell id="7" value="bonus = 500.0" style="rounded=1;whiteSpace=wrap;html=1;absoluteArcSize=1;arcSize=14;strokeWidth=2;" parent="1" vertex="1">
                    <mxGeometry x="220" y="510" width="100" height="40" as="geometry"/>
                </mxCell>
                <mxCell id="20" style="edgeStyle=none;html=1;entryX=0.5;entryY=0;entryDx=0;entryDy=0;entryPerimeter=0;" parent="1" source="8" target="9" edge="1">
                    <mxGeometry relative="1" as="geometry"/>
                </mxCell>
                <mxCell id="8" value="commiossion_rate = 0.12" style="rounded=1;whiteSpace=wrap;html=1;absoluteArcSize=1;arcSize=14;strokeWidth=2;" parent="1" vertex="1">
                    <mxGeometry x="190" y="580" width="160" height="40" as="geometry"/>
                </mxCell>
                <mxCell id="24" style="edgeStyle=none;html=1;entryX=0;entryY=0.5;entryDx=0;entryDy=0;entryPerimeter=0;" parent="1" source="9" target="4" edge="1">
                    <mxGeometry relative="1" as="geometry"/>
                </mxCell>
                <mxCell id="9" value="You met your sales quota!" style="strokeWidth=2;html=1;shape=mxgraph.flowchart.display;whiteSpace=wrap;" parent="1" vertex="1">
                    <mxGeometry x="190" y="650" width="160" height="60" as="geometry"/>
                </mxCell>
                <mxCell id="21" value="True" style="text;html=1;strokeColor=none;fillColor=none;align=center;verticalAlign=middle;whiteSpace=wrap;rounded=0;" parent="1" vertex="1">
                    <mxGeometry x="270" y="470" width="60" height="30" as="geometry"/>
                </mxCell>
                <mxCell id="22" value="False" style="text;html=1;strokeColor=none;fillColor=none;align=center;verticalAlign=middle;whiteSpace=wrap;rounded=0;" parent="1" vertex="1">
                    <mxGeometry x="340" y="400" width="60" height="30" as="geometry"/>
                </mxCell>
            </root>
        </mxGraphModel>
    </diagram>
    <diagram id="6Tc7TNAl6Jin8Av_L2Xj" name="Page-2">
        <mxGraphModel dx="1425" dy="790" grid="1" gridSize="10" guides="1" tooltips="1" connect="1" arrows="1" fold="1" page="1" pageScale="1" pageWidth="850" pageHeight="1100" math="0" shadow="0">
            <root>
                <mxCell id="Ytnv6dPcexWLq4eWZgGV-0"/>
                <mxCell id="Ytnv6dPcexWLq4eWZgGV-1" parent="Ytnv6dPcexWLq4eWZgGV-0"/>
                <mxCell id="Ytnv6dPcexWLq4eWZgGV-9" style="edgeStyle=none;html=1;entryX=0.5;entryY=0;entryDx=0;entryDy=0;" edge="1" parent="Ytnv6dPcexWLq4eWZgGV-1" source="Ytnv6dPcexWLq4eWZgGV-2" target="Ytnv6dPcexWLq4eWZgGV-4">
                    <mxGeometry relative="1" as="geometry"/>
                </mxCell>
                <mxCell id="Ytnv6dPcexWLq4eWZgGV-2" value="Start" style="strokeWidth=2;html=1;shape=mxgraph.flowchart.terminator;whiteSpace=wrap;" vertex="1" parent="Ytnv6dPcexWLq4eWZgGV-1">
                    <mxGeometry x="120" y="180" width="100" height="60" as="geometry"/>
                </mxCell>
                <mxCell id="Ytnv6dPcexWLq4eWZgGV-3" value="End" style="strokeWidth=2;html=1;shape=mxgraph.flowchart.terminator;whiteSpace=wrap;" vertex="1" parent="Ytnv6dPcexWLq4eWZgGV-1">
                    <mxGeometry x="120" y="840" width="100" height="60" as="geometry"/>
                </mxCell>
                <mxCell id="Ytnv6dPcexWLq4eWZgGV-10" style="edgeStyle=none;html=1;entryX=0.5;entryY=0;entryDx=0;entryDy=0;" edge="1" parent="Ytnv6dPcexWLq4eWZgGV-1" source="Ytnv6dPcexWLq4eWZgGV-4" target="Ytnv6dPcexWLq4eWZgGV-5">
                    <mxGeometry relative="1" as="geometry"/>
                </mxCell>
                <mxCell id="Ytnv6dPcexWLq4eWZgGV-4" value="First Score :" style="html=1;strokeWidth=2;shape=manualInput;whiteSpace=wrap;rounded=1;size=26;arcSize=11;" vertex="1" parent="Ytnv6dPcexWLq4eWZgGV-1">
                    <mxGeometry x="120" y="270" width="100" height="60" as="geometry"/>
                </mxCell>
                <mxCell id="Ytnv6dPcexWLq4eWZgGV-11" style="edgeStyle=none;html=1;entryX=0.5;entryY=0;entryDx=0;entryDy=0;" edge="1" parent="Ytnv6dPcexWLq4eWZgGV-1" source="Ytnv6dPcexWLq4eWZgGV-5" target="Ytnv6dPcexWLq4eWZgGV-6">
                    <mxGeometry relative="1" as="geometry"/>
                </mxCell>
                <mxCell id="Ytnv6dPcexWLq4eWZgGV-5" value="Second Score :" style="html=1;strokeWidth=2;shape=manualInput;whiteSpace=wrap;rounded=1;size=26;arcSize=11;" vertex="1" parent="Ytnv6dPcexWLq4eWZgGV-1">
                    <mxGeometry x="120" y="360" width="100" height="60" as="geometry"/>
                </mxCell>
                <mxCell id="Ytnv6dPcexWLq4eWZgGV-13" style="edgeStyle=none;html=1;entryX=0.5;entryY=0;entryDx=0;entryDy=0;" edge="1" parent="Ytnv6dPcexWLq4eWZgGV-1" source="Ytnv6dPcexWLq4eWZgGV-6" target="Ytnv6dPcexWLq4eWZgGV-7">
                    <mxGeometry relative="1" as="geometry"/>
                </mxCell>
                <mxCell id="Ytnv6dPcexWLq4eWZgGV-6" value="Third Score :" style="html=1;strokeWidth=2;shape=manualInput;whiteSpace=wrap;rounded=1;size=26;arcSize=11;" vertex="1" parent="Ytnv6dPcexWLq4eWZgGV-1">
                    <mxGeometry x="120" y="450" width="100" height="60" as="geometry"/>
                </mxCell>
                <mxCell id="Ytnv6dPcexWLq4eWZgGV-17" style="edgeStyle=none;html=1;entryX=0.5;entryY=0;entryDx=0;entryDy=0;entryPerimeter=0;" edge="1" parent="Ytnv6dPcexWLq4eWZgGV-1" source="Ytnv6dPcexWLq4eWZgGV-7" target="Ytnv6dPcexWLq4eWZgGV-16">
                    <mxGeometry relative="1" as="geometry"/>
                </mxCell>
                <mxCell id="Ytnv6dPcexWLq4eWZgGV-7" value="average = (first_score+second_score+third_score)/3" style="rounded=1;whiteSpace=wrap;html=1;absoluteArcSize=1;arcSize=14;strokeWidth=2;" vertex="1" parent="Ytnv6dPcexWLq4eWZgGV-1">
                    <mxGeometry x="15" y="540" width="310" height="40" as="geometry"/>
                </mxCell>
                <mxCell id="Ytnv6dPcexWLq4eWZgGV-20" style="edgeStyle=none;html=1;entryX=0;entryY=0.5;entryDx=0;entryDy=0;entryPerimeter=0;" edge="1" parent="Ytnv6dPcexWLq4eWZgGV-1" source="Ytnv6dPcexWLq4eWZgGV-14" target="Ytnv6dPcexWLq4eWZgGV-19">
                    <mxGeometry relative="1" as="geometry"/>
                </mxCell>
                <mxCell id="Ytnv6dPcexWLq4eWZgGV-23" style="edgeStyle=none;html=1;entryX=0.5;entryY=0;entryDx=0;entryDy=0;entryPerimeter=0;" edge="1" parent="Ytnv6dPcexWLq4eWZgGV-1" source="Ytnv6dPcexWLq4eWZgGV-14" target="Ytnv6dPcexWLq4eWZgGV-3">
                    <mxGeometry relative="1" as="geometry"/>
                </mxCell>
                <mxCell id="Ytnv6dPcexWLq4eWZgGV-14" value="if average &amp;gt; 95:" style="strokeWidth=2;html=1;shape=mxgraph.flowchart.decision;whiteSpace=wrap;" vertex="1" parent="Ytnv6dPcexWLq4eWZgGV-1">
                    <mxGeometry x="120" y="700" width="100" height="100" as="geometry"/>
                </mxCell>
                <mxCell id="Ytnv6dPcexWLq4eWZgGV-18" style="edgeStyle=none;html=1;entryX=0.5;entryY=0;entryDx=0;entryDy=0;entryPerimeter=0;" edge="1" parent="Ytnv6dPcexWLq4eWZgGV-1" source="Ytnv6dPcexWLq4eWZgGV-16" target="Ytnv6dPcexWLq4eWZgGV-14">
                    <mxGeometry relative="1" as="geometry"/>
                </mxCell>
                <mxCell id="Ytnv6dPcexWLq4eWZgGV-16" value="average" style="strokeWidth=2;html=1;shape=mxgraph.flowchart.display;whiteSpace=wrap;" vertex="1" parent="Ytnv6dPcexWLq4eWZgGV-1">
                    <mxGeometry x="120" y="610" width="100" height="60" as="geometry"/>
                </mxCell>
                <mxCell id="Ytnv6dPcexWLq4eWZgGV-24" style="edgeStyle=none;html=1;entryX=1;entryY=0.5;entryDx=0;entryDy=0;entryPerimeter=0;" edge="1" parent="Ytnv6dPcexWLq4eWZgGV-1" source="Ytnv6dPcexWLq4eWZgGV-19" target="Ytnv6dPcexWLq4eWZgGV-3">
                    <mxGeometry relative="1" as="geometry">
                        <Array as="points">
                            <mxPoint x="320" y="870"/>
                        </Array>
                    </mxGeometry>
                </mxCell>
                <mxCell id="Ytnv6dPcexWLq4eWZgGV-19" value="congratulations" style="strokeWidth=2;html=1;shape=mxgraph.flowchart.display;whiteSpace=wrap;" vertex="1" parent="Ytnv6dPcexWLq4eWZgGV-1">
                    <mxGeometry x="270" y="720" width="100" height="60" as="geometry"/>
                </mxCell>
                <mxCell id="Ytnv6dPcexWLq4eWZgGV-21" value="True" style="text;html=1;strokeColor=none;fillColor=none;align=center;verticalAlign=middle;whiteSpace=wrap;rounded=0;" vertex="1" parent="Ytnv6dPcexWLq4eWZgGV-1">
                    <mxGeometry x="210" y="720" width="60" height="30" as="geometry"/>
                </mxCell>
                <mxCell id="Ytnv6dPcexWLq4eWZgGV-22" value="False" style="text;html=1;strokeColor=none;fillColor=none;align=center;verticalAlign=middle;whiteSpace=wrap;rounded=0;" vertex="1" parent="Ytnv6dPcexWLq4eWZgGV-1">
                    <mxGeometry x="170" y="800" width="60" height="30" as="geometry"/>
                </mxCell>
            </root>
        </mxGraphModel>
    </diagram>
    <diagram id="rSBsGykF14jfiDmRn0nw" name="Page-3">
        <mxGraphModel dx="1425" dy="790" grid="1" gridSize="10" guides="1" tooltips="1" connect="1" arrows="1" fold="1" page="1" pageScale="1" pageWidth="850" pageHeight="1100" math="0" shadow="0">
            <root>
                <mxCell id="jsNpPN3t-V2Z6mz5eVgf-0"/>
                <mxCell id="jsNpPN3t-V2Z6mz5eVgf-1" parent="jsNpPN3t-V2Z6mz5eVgf-0"/>
                <mxCell id="jsNpPN3t-V2Z6mz5eVgf-10" value="" style="edgeStyle=none;html=1;" parent="jsNpPN3t-V2Z6mz5eVgf-1" source="jsNpPN3t-V2Z6mz5eVgf-2" target="jsNpPN3t-V2Z6mz5eVgf-4" edge="1">
                    <mxGeometry relative="1" as="geometry"/>
                </mxCell>
                <mxCell id="jsNpPN3t-V2Z6mz5eVgf-2" value="Start" style="strokeWidth=2;html=1;shape=mxgraph.flowchart.terminator;whiteSpace=wrap;" parent="jsNpPN3t-V2Z6mz5eVgf-1" vertex="1">
                    <mxGeometry x="270" y="200" width="100" height="60" as="geometry"/>
                </mxCell>
                <mxCell id="jsNpPN3t-V2Z6mz5eVgf-3" value="End" style="strokeWidth=2;html=1;shape=mxgraph.flowchart.terminator;whiteSpace=wrap;" parent="jsNpPN3t-V2Z6mz5eVgf-1" vertex="1">
                    <mxGeometry x="540" y="720" width="100" height="60" as="geometry"/>
                </mxCell>
                <mxCell id="jsNpPN3t-V2Z6mz5eVgf-9" style="edgeStyle=none;html=1;entryX=0.5;entryY=0;entryDx=0;entryDy=0;" parent="jsNpPN3t-V2Z6mz5eVgf-1" source="jsNpPN3t-V2Z6mz5eVgf-4" target="jsNpPN3t-V2Z6mz5eVgf-6" edge="1">
                    <mxGeometry relative="1" as="geometry"/>
                </mxCell>
                <mxCell id="jsNpPN3t-V2Z6mz5eVgf-26" style="edgeStyle=none;html=1;entryX=1;entryY=0.5;entryDx=0;entryDy=0;entryPerimeter=0;" parent="jsNpPN3t-V2Z6mz5eVgf-1" source="jsNpPN3t-V2Z6mz5eVgf-4" target="jsNpPN3t-V2Z6mz5eVgf-3" edge="1">
                    <mxGeometry relative="1" as="geometry">
                        <Array as="points">
                            <mxPoint x="710" y="330"/>
                            <mxPoint x="710" y="750"/>
                        </Array>
                    </mxGeometry>
                </mxCell>
                <mxCell id="jsNpPN3t-V2Z6mz5eVgf-4" value="if __name__ == &quot;main&quot;" style="strokeWidth=2;html=1;shape=mxgraph.flowchart.decision;whiteSpace=wrap;" parent="jsNpPN3t-V2Z6mz5eVgf-1" vertex="1">
                    <mxGeometry x="220" y="290" width="200" height="80" as="geometry"/>
                </mxCell>
                <mxCell id="jsNpPN3t-V2Z6mz5eVgf-8" style="edgeStyle=none;html=1;entryX=0.5;entryY=0;entryDx=0;entryDy=0;" parent="jsNpPN3t-V2Z6mz5eVgf-1" source="jsNpPN3t-V2Z6mz5eVgf-6" target="jsNpPN3t-V2Z6mz5eVgf-7" edge="1">
                    <mxGeometry relative="1" as="geometry"/>
                </mxCell>
                <mxCell id="jsNpPN3t-V2Z6mz5eVgf-6" value="Enter the number of hours worked :" style="html=1;strokeWidth=2;shape=manualInput;whiteSpace=wrap;rounded=1;size=26;arcSize=11;" parent="jsNpPN3t-V2Z6mz5eVgf-1" vertex="1">
                    <mxGeometry x="200" y="400" width="240" height="80" as="geometry"/>
                </mxCell>
                <mxCell id="jsNpPN3t-V2Z6mz5eVgf-12" style="edgeStyle=none;html=1;entryX=0.5;entryY=0;entryDx=0;entryDy=0;entryPerimeter=0;" parent="jsNpPN3t-V2Z6mz5eVgf-1" source="jsNpPN3t-V2Z6mz5eVgf-7" target="jsNpPN3t-V2Z6mz5eVgf-11" edge="1">
                    <mxGeometry relative="1" as="geometry"/>
                </mxCell>
                <mxCell id="jsNpPN3t-V2Z6mz5eVgf-7" value="Enter the number of hours payrate :" style="html=1;strokeWidth=2;shape=manualInput;whiteSpace=wrap;rounded=1;size=26;arcSize=11;" parent="jsNpPN3t-V2Z6mz5eVgf-1" vertex="1">
                    <mxGeometry x="200" y="510" width="240" height="80" as="geometry"/>
                </mxCell>
                <mxCell id="jsNpPN3t-V2Z6mz5eVgf-17" style="edgeStyle=none;html=1;entryX=0.5;entryY=0;entryDx=0;entryDy=0;" parent="jsNpPN3t-V2Z6mz5eVgf-1" source="jsNpPN3t-V2Z6mz5eVgf-11" target="jsNpPN3t-V2Z6mz5eVgf-16" edge="1">
                    <mxGeometry relative="1" as="geometry"/>
                </mxCell>
                <mxCell id="jsNpPN3t-V2Z6mz5eVgf-21" style="edgeStyle=none;html=1;entryX=0;entryY=0.5;entryDx=0;entryDy=0;" parent="jsNpPN3t-V2Z6mz5eVgf-1" source="jsNpPN3t-V2Z6mz5eVgf-11" target="jsNpPN3t-V2Z6mz5eVgf-20" edge="1">
                    <mxGeometry relative="1" as="geometry"/>
                </mxCell>
                <mxCell id="jsNpPN3t-V2Z6mz5eVgf-11" value="if hours_work &amp;gt; 48:" style="strokeWidth=2;html=1;shape=mxgraph.flowchart.decision;whiteSpace=wrap;" parent="jsNpPN3t-V2Z6mz5eVgf-1" vertex="1">
                    <mxGeometry x="220" y="620" width="200" height="80" as="geometry"/>
                </mxCell>
                <mxCell id="jsNpPN3t-V2Z6mz5eVgf-13" value="True" style="text;html=1;strokeColor=none;fillColor=none;align=center;verticalAlign=middle;whiteSpace=wrap;rounded=0;" parent="jsNpPN3t-V2Z6mz5eVgf-1" vertex="1">
                    <mxGeometry x="320" y="370" width="60" height="30" as="geometry"/>
                </mxCell>
                <mxCell id="jsNpPN3t-V2Z6mz5eVgf-14" value="True" style="text;html=1;strokeColor=none;fillColor=none;align=center;verticalAlign=middle;whiteSpace=wrap;rounded=0;" parent="jsNpPN3t-V2Z6mz5eVgf-1" vertex="1">
                    <mxGeometry x="320" y="700" width="60" height="30" as="geometry"/>
                </mxCell>
                <mxCell id="jsNpPN3t-V2Z6mz5eVgf-15" value="False" style="text;html=1;strokeColor=none;fillColor=none;align=center;verticalAlign=middle;whiteSpace=wrap;rounded=0;" parent="jsNpPN3t-V2Z6mz5eVgf-1" vertex="1">
                    <mxGeometry x="425" y="290" width="60" height="30" as="geometry"/>
                </mxCell>
                <mxCell id="jsNpPN3t-V2Z6mz5eVgf-25" style="edgeStyle=none;html=1;entryX=0;entryY=0.5;entryDx=0;entryDy=0;entryPerimeter=0;" parent="jsNpPN3t-V2Z6mz5eVgf-1" source="jsNpPN3t-V2Z6mz5eVgf-16" target="jsNpPN3t-V2Z6mz5eVgf-3" edge="1">
                    <mxGeometry relative="1" as="geometry"/>
                </mxCell>
                <mxCell id="jsNpPN3t-V2Z6mz5eVgf-16" value="gross_pay = ((40*pay_rate))+((hours_work)*30)" style="rounded=1;whiteSpace=wrap;html=1;absoluteArcSize=1;arcSize=14;strokeWidth=2;" parent="jsNpPN3t-V2Z6mz5eVgf-1" vertex="1">
                    <mxGeometry x="182.5" y="730" width="275" height="40" as="geometry"/>
                </mxCell>
                <mxCell id="jsNpPN3t-V2Z6mz5eVgf-24" style="edgeStyle=none;html=1;entryX=0.5;entryY=0;entryDx=0;entryDy=0;entryPerimeter=0;" parent="jsNpPN3t-V2Z6mz5eVgf-1" source="jsNpPN3t-V2Z6mz5eVgf-20" target="jsNpPN3t-V2Z6mz5eVgf-3" edge="1">
                    <mxGeometry relative="1" as="geometry"/>
                </mxCell>
                <mxCell id="jsNpPN3t-V2Z6mz5eVgf-20" value="&lt;span&gt;gross_pay = (hours_work*pay_rate)&lt;/span&gt;" style="rounded=1;whiteSpace=wrap;html=1;absoluteArcSize=1;arcSize=14;strokeWidth=2;" parent="jsNpPN3t-V2Z6mz5eVgf-1" vertex="1">
                    <mxGeometry x="480" y="640" width="220" height="40" as="geometry"/>
                </mxCell>
                <mxCell id="jsNpPN3t-V2Z6mz5eVgf-23" value="False" style="text;html=1;strokeColor=none;fillColor=none;align=center;verticalAlign=middle;whiteSpace=wrap;rounded=0;" parent="jsNpPN3t-V2Z6mz5eVgf-1" vertex="1">
                    <mxGeometry x="420" y="630" width="60" height="30" as="geometry"/>
                </mxCell>
            </root>
        </mxGraphModel>
    </diagram>
    <diagram id="6WMhHRBT0eP-Nobfqjbb" name="Page-4">
        <mxGraphModel dx="1425" dy="790" grid="1" gridSize="10" guides="1" tooltips="1" connect="1" arrows="1" fold="1" page="1" pageScale="1" pageWidth="850" pageHeight="1100" math="0" shadow="0">
            <root>
                <mxCell id="NIvhUx0DPcq_0cUMLNg6-0"/>
                <mxCell id="NIvhUx0DPcq_0cUMLNg6-1" parent="NIvhUx0DPcq_0cUMLNg6-0"/>
                <mxCell id="bYUaJ46Gn_Y0zW7munqn-4" style="edgeStyle=none;html=1;entryX=0.5;entryY=0;entryDx=0;entryDy=0;" edge="1" parent="NIvhUx0DPcq_0cUMLNg6-1" source="bYUaJ46Gn_Y0zW7munqn-0" target="bYUaJ46Gn_Y0zW7munqn-3">
                    <mxGeometry relative="1" as="geometry"/>
                </mxCell>
                <mxCell id="bYUaJ46Gn_Y0zW7munqn-0" value="Start" style="strokeWidth=2;html=1;shape=mxgraph.flowchart.terminator;whiteSpace=wrap;" vertex="1" parent="NIvhUx0DPcq_0cUMLNg6-1">
                    <mxGeometry x="270" y="200" width="100" height="60" as="geometry"/>
                </mxCell>
                <mxCell id="bYUaJ46Gn_Y0zW7munqn-1" value="End" style="strokeWidth=2;html=1;shape=mxgraph.flowchart.terminator;whiteSpace=wrap;" vertex="1" parent="NIvhUx0DPcq_0cUMLNg6-1">
                    <mxGeometry x="270" y="560" width="100" height="60" as="geometry"/>
                </mxCell>
                <mxCell id="bYUaJ46Gn_Y0zW7munqn-17" style="edgeStyle=none;html=1;entryX=1;entryY=0.5;entryDx=0;entryDy=0;entryPerimeter=0;" edge="1" parent="NIvhUx0DPcq_0cUMLNg6-1" source="bYUaJ46Gn_Y0zW7munqn-2" target="bYUaJ46Gn_Y0zW7munqn-7">
                    <mxGeometry relative="1" as="geometry"/>
                </mxCell>
                <mxCell id="bYUaJ46Gn_Y0zW7munqn-20" style="edgeStyle=none;html=1;entryX=0.5;entryY=0;entryDx=0;entryDy=0;entryPerimeter=0;" edge="1" parent="NIvhUx0DPcq_0cUMLNg6-1" source="bYUaJ46Gn_Y0zW7munqn-2" target="bYUaJ46Gn_Y0zW7munqn-11">
                    <mxGeometry relative="1" as="geometry">
                        <Array as="points">
                            <mxPoint x="408" y="420"/>
                        </Array>
                    </mxGeometry>
                </mxCell>
                <mxCell id="bYUaJ46Gn_Y0zW7munqn-2" value="if num &amp;gt; 0:" style="strokeWidth=2;html=1;shape=mxgraph.flowchart.decision;whiteSpace=wrap;" vertex="1" parent="NIvhUx0DPcq_0cUMLNg6-1">
                    <mxGeometry x="272.5" y="380" width="95" height="80" as="geometry"/>
                </mxCell>
                <mxCell id="bYUaJ46Gn_Y0zW7munqn-5" style="edgeStyle=none;html=1;entryX=0.5;entryY=0;entryDx=0;entryDy=0;entryPerimeter=0;" edge="1" parent="NIvhUx0DPcq_0cUMLNg6-1" source="bYUaJ46Gn_Y0zW7munqn-3" target="bYUaJ46Gn_Y0zW7munqn-2">
                    <mxGeometry relative="1" as="geometry"/>
                </mxCell>
                <mxCell id="bYUaJ46Gn_Y0zW7munqn-3" value="Enter a number :" style="html=1;strokeWidth=2;shape=manualInput;whiteSpace=wrap;rounded=1;size=26;arcSize=11;" vertex="1" parent="NIvhUx0DPcq_0cUMLNg6-1">
                    <mxGeometry x="260" y="290" width="120" height="60" as="geometry"/>
                </mxCell>
                <mxCell id="bYUaJ46Gn_Y0zW7munqn-30" style="edgeStyle=none;html=1;entryX=0;entryY=0.5;entryDx=0;entryDy=0;entryPerimeter=0;" edge="1" parent="NIvhUx0DPcq_0cUMLNg6-1" source="bYUaJ46Gn_Y0zW7munqn-7" target="bYUaJ46Gn_Y0zW7munqn-27">
                    <mxGeometry relative="1" as="geometry"/>
                </mxCell>
                <mxCell id="bYUaJ46Gn_Y0zW7munqn-7" value="Positive Number" style="strokeWidth=2;html=1;shape=mxgraph.flowchart.display;whiteSpace=wrap;" vertex="1" parent="NIvhUx0DPcq_0cUMLNg6-1">
                    <mxGeometry x="130" y="390" width="100" height="60" as="geometry"/>
                </mxCell>
                <mxCell id="bYUaJ46Gn_Y0zW7munqn-29" style="edgeStyle=none;html=1;entryX=0.5;entryY=0;entryDx=0;entryDy=0;entryPerimeter=0;" edge="1" parent="NIvhUx0DPcq_0cUMLNg6-1" source="bYUaJ46Gn_Y0zW7munqn-8" target="bYUaJ46Gn_Y0zW7munqn-27">
                    <mxGeometry relative="1" as="geometry"/>
                </mxCell>
                <mxCell id="bYUaJ46Gn_Y0zW7munqn-8" value="Zero" style="strokeWidth=2;html=1;shape=mxgraph.flowchart.display;whiteSpace=wrap;" vertex="1" parent="NIvhUx0DPcq_0cUMLNg6-1">
                    <mxGeometry x="220" y="470" width="100" height="60" as="geometry"/>
                </mxCell>
                <mxCell id="bYUaJ46Gn_Y0zW7munqn-32" style="edgeStyle=none;html=1;entryX=1;entryY=0.5;entryDx=0;entryDy=0;entryPerimeter=0;" edge="1" parent="NIvhUx0DPcq_0cUMLNg6-1" source="bYUaJ46Gn_Y0zW7munqn-9" target="bYUaJ46Gn_Y0zW7munqn-1">
                    <mxGeometry relative="1" as="geometry">
                        <Array as="points">
                            <mxPoint x="540" y="590"/>
                        </Array>
                    </mxGeometry>
                </mxCell>
                <mxCell id="bYUaJ46Gn_Y0zW7munqn-9" value="Negative Number" style="strokeWidth=2;html=1;shape=mxgraph.flowchart.display;whiteSpace=wrap;" vertex="1" parent="NIvhUx0DPcq_0cUMLNg6-1">
                    <mxGeometry x="490" y="470" width="100" height="60" as="geometry"/>
                </mxCell>
                <mxCell id="bYUaJ46Gn_Y0zW7munqn-21" style="edgeStyle=none;html=1;entryX=1;entryY=0.5;entryDx=0;entryDy=0;entryPerimeter=0;" edge="1" parent="NIvhUx0DPcq_0cUMLNg6-1" source="bYUaJ46Gn_Y0zW7munqn-11" target="bYUaJ46Gn_Y0zW7munqn-8">
                    <mxGeometry relative="1" as="geometry"/>
                </mxCell>
                <mxCell id="bYUaJ46Gn_Y0zW7munqn-26" style="edgeStyle=none;html=1;entryX=0;entryY=0.5;entryDx=0;entryDy=0;entryPerimeter=0;" edge="1" parent="NIvhUx0DPcq_0cUMLNg6-1" source="bYUaJ46Gn_Y0zW7munqn-11" target="bYUaJ46Gn_Y0zW7munqn-9">
                    <mxGeometry relative="1" as="geometry"/>
                </mxCell>
                <mxCell id="bYUaJ46Gn_Y0zW7munqn-11" value="elif num == 0:" style="strokeWidth=2;html=1;shape=mxgraph.flowchart.decision;whiteSpace=wrap;" vertex="1" parent="NIvhUx0DPcq_0cUMLNg6-1">
                    <mxGeometry x="360" y="460" width="95" height="80" as="geometry"/>
                </mxCell>
                <mxCell id="bYUaJ46Gn_Y0zW7munqn-14" value="True" style="text;html=1;strokeColor=none;fillColor=none;align=center;verticalAlign=middle;whiteSpace=wrap;rounded=0;" vertex="1" parent="NIvhUx0DPcq_0cUMLNg6-1">
                    <mxGeometry x="220" y="390" width="60" height="30" as="geometry"/>
                </mxCell>
                <mxCell id="bYUaJ46Gn_Y0zW7munqn-16" value="False" style="text;html=1;strokeColor=none;fillColor=none;align=center;verticalAlign=middle;whiteSpace=wrap;rounded=0;" vertex="1" parent="NIvhUx0DPcq_0cUMLNg6-1">
                    <mxGeometry x="360" y="390" width="60" height="30" as="geometry"/>
                </mxCell>
                <mxCell id="bYUaJ46Gn_Y0zW7munqn-22" value="True" style="text;html=1;strokeColor=none;fillColor=none;align=center;verticalAlign=middle;whiteSpace=wrap;rounded=0;" vertex="1" parent="NIvhUx0DPcq_0cUMLNg6-1">
                    <mxGeometry x="310" y="470" width="60" height="30" as="geometry"/>
                </mxCell>
                <mxCell id="bYUaJ46Gn_Y0zW7munqn-25" value="False" style="text;html=1;strokeColor=none;fillColor=none;align=center;verticalAlign=middle;whiteSpace=wrap;rounded=0;" vertex="1" parent="NIvhUx0DPcq_0cUMLNg6-1">
                    <mxGeometry x="440" y="470" width="60" height="30" as="geometry"/>
                </mxCell>
                <mxCell id="bYUaJ46Gn_Y0zW7munqn-31" style="edgeStyle=none;html=1;entryX=0;entryY=0.5;entryDx=0;entryDy=0;entryPerimeter=0;" edge="1" parent="NIvhUx0DPcq_0cUMLNg6-1" source="bYUaJ46Gn_Y0zW7munqn-27" target="bYUaJ46Gn_Y0zW7munqn-1">
                    <mxGeometry relative="1" as="geometry">
                        <Array as="points">
                            <mxPoint x="180" y="590"/>
                        </Array>
                    </mxGeometry>
                </mxCell>
                <mxCell id="bYUaJ46Gn_Y0zW7munqn-27" value="" style="verticalLabelPosition=bottom;verticalAlign=top;html=1;shape=mxgraph.flowchart.on-page_reference;direction=south;" vertex="1" parent="NIvhUx0DPcq_0cUMLNg6-1">
                    <mxGeometry x="170" y="490" width="20" height="20" as="geometry"/>
                </mxCell>
            </root>
        </mxGraphModel>
    </diagram>
    <diagram id="4zrv5CGT2jy4vMeKIRq7" name="Page-5">
        <mxGraphModel dx="2526" dy="929" grid="1" gridSize="10" guides="1" tooltips="1" connect="1" arrows="1" fold="1" page="1" pageScale="1" pageWidth="850" pageHeight="1100" math="0" shadow="0">
            <root>
                <mxCell id="EHFNYhh7UBXqCngU-eui-0"/>
                <mxCell id="EHFNYhh7UBXqCngU-eui-1" parent="EHFNYhh7UBXqCngU-eui-0"/>
                <mxCell id="bW7ZYCRdu0uEWTsb5J2A-7" style="edgeStyle=none;html=1;entryX=0.5;entryY=0;entryDx=0;entryDy=0;" edge="1" parent="EHFNYhh7UBXqCngU-eui-1" source="bW7ZYCRdu0uEWTsb5J2A-0" target="bW7ZYCRdu0uEWTsb5J2A-3">
                    <mxGeometry relative="1" as="geometry"/>
                </mxCell>
                <mxCell id="bW7ZYCRdu0uEWTsb5J2A-0" value="Start" style="strokeWidth=2;html=1;shape=mxgraph.flowchart.terminator;whiteSpace=wrap;" vertex="1" parent="EHFNYhh7UBXqCngU-eui-1">
                    <mxGeometry x="270" y="200" width="100" height="60" as="geometry"/>
                </mxCell>
                <mxCell id="bW7ZYCRdu0uEWTsb5J2A-1" value="End" style="strokeWidth=2;html=1;shape=mxgraph.flowchart.terminator;whiteSpace=wrap;" vertex="1" parent="EHFNYhh7UBXqCngU-eui-1">
                    <mxGeometry x="270" y="680" width="100" height="60" as="geometry"/>
                </mxCell>
                <mxCell id="mABddNdtJLSnhPPc_mWK-1" style="edgeStyle=none;html=1;entryX=1;entryY=0.5;entryDx=0;entryDy=0;entryPerimeter=0;" edge="1" parent="EHFNYhh7UBXqCngU-eui-1" source="bW7ZYCRdu0uEWTsb5J2A-2" target="mABddNdtJLSnhPPc_mWK-0">
                    <mxGeometry relative="1" as="geometry"/>
                </mxCell>
                <mxCell id="mABddNdtJLSnhPPc_mWK-5" style="edgeStyle=none;html=1;entryX=0.5;entryY=0;entryDx=0;entryDy=0;entryPerimeter=0;" edge="1" parent="EHFNYhh7UBXqCngU-eui-1" source="bW7ZYCRdu0uEWTsb5J2A-2" target="mABddNdtJLSnhPPc_mWK-2">
                    <mxGeometry relative="1" as="geometry">
                        <Array as="points">
                            <mxPoint x="449" y="420"/>
                        </Array>
                    </mxGeometry>
                </mxCell>
                <mxCell id="bW7ZYCRdu0uEWTsb5J2A-2" value="if inchar &amp;gt;= 'A' and inchar &amp;lt;= 'Z':" style="strokeWidth=2;html=1;shape=mxgraph.flowchart.decision;whiteSpace=wrap;" vertex="1" parent="EHFNYhh7UBXqCngU-eui-1">
                    <mxGeometry x="211.25" y="380" width="217.5" height="80" as="geometry"/>
                </mxCell>
                <mxCell id="bW7ZYCRdu0uEWTsb5J2A-8" style="edgeStyle=none;html=1;entryX=0.5;entryY=0;entryDx=0;entryDy=0;entryPerimeter=0;" edge="1" parent="EHFNYhh7UBXqCngU-eui-1" source="bW7ZYCRdu0uEWTsb5J2A-3" target="bW7ZYCRdu0uEWTsb5J2A-2">
                    <mxGeometry relative="1" as="geometry"/>
                </mxCell>
                <mxCell id="bW7ZYCRdu0uEWTsb5J2A-3" value="Input one character :" style="html=1;strokeWidth=2;shape=manualInput;whiteSpace=wrap;rounded=1;size=26;arcSize=11;" vertex="1" parent="EHFNYhh7UBXqCngU-eui-1">
                    <mxGeometry x="260" y="290" width="120" height="60" as="geometry"/>
                </mxCell>
                <mxCell id="bW7ZYCRdu0uEWTsb5J2A-4" value="True" style="text;html=1;strokeColor=none;fillColor=none;align=center;verticalAlign=middle;whiteSpace=wrap;rounded=0;" vertex="1" parent="EHFNYhh7UBXqCngU-eui-1">
                    <mxGeometry x="151.25" y="390" width="60" height="30" as="geometry"/>
                </mxCell>
                <mxCell id="bW7ZYCRdu0uEWTsb5J2A-5" value="False" style="text;html=1;strokeColor=none;fillColor=none;align=center;verticalAlign=middle;whiteSpace=wrap;rounded=0;" vertex="1" parent="EHFNYhh7UBXqCngU-eui-1">
                    <mxGeometry x="450" y="420" width="60" height="30" as="geometry"/>
                </mxCell>
                <mxCell id="mABddNdtJLSnhPPc_mWK-34" style="edgeStyle=none;html=1;entryX=0.5;entryY=1;entryDx=0;entryDy=0;entryPerimeter=0;" edge="1" parent="EHFNYhh7UBXqCngU-eui-1" source="mABddNdtJLSnhPPc_mWK-0" target="mABddNdtJLSnhPPc_mWK-21">
                    <mxGeometry relative="1" as="geometry">
                        <Array as="points">
                            <mxPoint x="40" y="600"/>
                        </Array>
                    </mxGeometry>
                </mxCell>
                <mxCell id="mABddNdtJLSnhPPc_mWK-0" value="&quot;You in put Upper Case Letter&quot;, inchar" style="strokeWidth=2;html=1;shape=mxgraph.flowchart.display;whiteSpace=wrap;" vertex="1" parent="EHFNYhh7UBXqCngU-eui-1">
                    <mxGeometry x="-78.75" y="390" width="230" height="60" as="geometry"/>
                </mxCell>
                <mxCell id="mABddNdtJLSnhPPc_mWK-7" style="edgeStyle=none;html=1;entryX=1;entryY=0.5;entryDx=0;entryDy=0;entryPerimeter=0;" edge="1" parent="EHFNYhh7UBXqCngU-eui-1" source="mABddNdtJLSnhPPc_mWK-2" target="mABddNdtJLSnhPPc_mWK-6">
                    <mxGeometry relative="1" as="geometry"/>
                </mxCell>
                <mxCell id="mABddNdtJLSnhPPc_mWK-11" style="edgeStyle=none;html=1;entryX=0.5;entryY=0;entryDx=0;entryDy=0;entryPerimeter=0;exitX=1;exitY=0.5;exitDx=0;exitDy=0;exitPerimeter=0;" edge="1" parent="EHFNYhh7UBXqCngU-eui-1" source="mABddNdtJLSnhPPc_mWK-2" target="mABddNdtJLSnhPPc_mWK-9">
                    <mxGeometry relative="1" as="geometry">
                        <Array as="points">
                            <mxPoint x="570" y="500"/>
                        </Array>
                    </mxGeometry>
                </mxCell>
                <mxCell id="mABddNdtJLSnhPPc_mWK-2" value="elif inchar &amp;gt;= 'a' and inchar &amp;lt;= 'z':" style="strokeWidth=2;html=1;shape=mxgraph.flowchart.decision;whiteSpace=wrap;" vertex="1" parent="EHFNYhh7UBXqCngU-eui-1">
                    <mxGeometry x="340" y="460" width="217.5" height="80" as="geometry"/>
                </mxCell>
                <mxCell id="mABddNdtJLSnhPPc_mWK-36" style="edgeStyle=none;html=1;entryX=0;entryY=0.5;entryDx=0;entryDy=0;entryPerimeter=0;" edge="1" parent="EHFNYhh7UBXqCngU-eui-1" source="mABddNdtJLSnhPPc_mWK-6" target="mABddNdtJLSnhPPc_mWK-21">
                    <mxGeometry relative="1" as="geometry"/>
                </mxCell>
                <mxCell id="mABddNdtJLSnhPPc_mWK-6" value="&quot;You in put Lower Case Letter&quot;, inchar" style="strokeWidth=2;html=1;shape=mxgraph.flowchart.display;whiteSpace=wrap;" vertex="1" parent="EHFNYhh7UBXqCngU-eui-1">
                    <mxGeometry x="60" y="470" width="230" height="60" as="geometry"/>
                </mxCell>
                <mxCell id="mABddNdtJLSnhPPc_mWK-8" value="True" style="text;html=1;strokeColor=none;fillColor=none;align=center;verticalAlign=middle;whiteSpace=wrap;rounded=0;" vertex="1" parent="EHFNYhh7UBXqCngU-eui-1">
                    <mxGeometry x="290" y="470" width="60" height="30" as="geometry"/>
                </mxCell>
                <mxCell id="mABddNdtJLSnhPPc_mWK-13" style="edgeStyle=none;html=1;entryX=1;entryY=0.5;entryDx=0;entryDy=0;entryPerimeter=0;" edge="1" parent="EHFNYhh7UBXqCngU-eui-1" source="mABddNdtJLSnhPPc_mWK-9" target="mABddNdtJLSnhPPc_mWK-12">
                    <mxGeometry relative="1" as="geometry"/>
                </mxCell>
                <mxCell id="mABddNdtJLSnhPPc_mWK-17" style="edgeStyle=none;html=1;entryX=0.561;entryY=-0.017;entryDx=0;entryDy=0;entryPerimeter=0;" edge="1" parent="EHFNYhh7UBXqCngU-eui-1" source="mABddNdtJLSnhPPc_mWK-9" target="mABddNdtJLSnhPPc_mWK-16">
                    <mxGeometry relative="1" as="geometry"/>
                </mxCell>
                <mxCell id="mABddNdtJLSnhPPc_mWK-9" value="elif inchar &amp;gt;= '0' and inchar &amp;lt;= '9':" style="strokeWidth=2;html=1;shape=mxgraph.flowchart.decision;whiteSpace=wrap;" vertex="1" parent="EHFNYhh7UBXqCngU-eui-1">
                    <mxGeometry x="460" y="560" width="217.5" height="80" as="geometry"/>
                </mxCell>
                <mxCell id="mABddNdtJLSnhPPc_mWK-29" style="edgeStyle=none;html=1;entryX=0.5;entryY=0;entryDx=0;entryDy=0;entryPerimeter=0;" edge="1" parent="EHFNYhh7UBXqCngU-eui-1" source="mABddNdtJLSnhPPc_mWK-12" target="mABddNdtJLSnhPPc_mWK-21">
                    <mxGeometry relative="1" as="geometry"/>
                </mxCell>
                <mxCell id="mABddNdtJLSnhPPc_mWK-12" value="&quot;You in put Number&quot;, inchar" style="strokeWidth=2;html=1;shape=mxgraph.flowchart.display;whiteSpace=wrap;" vertex="1" parent="EHFNYhh7UBXqCngU-eui-1">
                    <mxGeometry x="180" y="570" width="230" height="60" as="geometry"/>
                </mxCell>
                <mxCell id="mABddNdtJLSnhPPc_mWK-14" value="True" style="text;html=1;strokeColor=none;fillColor=none;align=center;verticalAlign=middle;whiteSpace=wrap;rounded=0;" vertex="1" parent="EHFNYhh7UBXqCngU-eui-1">
                    <mxGeometry x="410" y="570" width="60" height="30" as="geometry"/>
                </mxCell>
                <mxCell id="mABddNdtJLSnhPPc_mWK-15" value="False" style="text;html=1;strokeColor=none;fillColor=none;align=center;verticalAlign=middle;whiteSpace=wrap;rounded=0;" vertex="1" parent="EHFNYhh7UBXqCngU-eui-1">
                    <mxGeometry x="570" y="520" width="60" height="30" as="geometry"/>
                </mxCell>
                <mxCell id="mABddNdtJLSnhPPc_mWK-31" style="edgeStyle=none;html=1;entryX=1;entryY=0.5;entryDx=0;entryDy=0;entryPerimeter=0;" edge="1" parent="EHFNYhh7UBXqCngU-eui-1" source="mABddNdtJLSnhPPc_mWK-16" target="bW7ZYCRdu0uEWTsb5J2A-1">
                    <mxGeometry relative="1" as="geometry">
                        <mxPoint x="410" y="710" as="targetPoint"/>
                    </mxGeometry>
                </mxCell>
                <mxCell id="mABddNdtJLSnhPPc_mWK-16" value="&quot;It's not a letter or number.&quot;, inchar" style="strokeWidth=2;html=1;shape=mxgraph.flowchart.display;whiteSpace=wrap;" vertex="1" parent="EHFNYhh7UBXqCngU-eui-1">
                    <mxGeometry x="440" y="680" width="230" height="60" as="geometry"/>
                </mxCell>
                <mxCell id="mABddNdtJLSnhPPc_mWK-18" value="False" style="text;html=1;strokeColor=none;fillColor=none;align=center;verticalAlign=middle;whiteSpace=wrap;rounded=0;" vertex="1" parent="EHFNYhh7UBXqCngU-eui-1">
                    <mxGeometry x="570" y="650" width="60" height="30" as="geometry"/>
                </mxCell>
                <mxCell id="mABddNdtJLSnhPPc_mWK-37" style="edgeStyle=none;html=1;entryX=0;entryY=0.5;entryDx=0;entryDy=0;entryPerimeter=0;" edge="1" parent="EHFNYhh7UBXqCngU-eui-1" source="mABddNdtJLSnhPPc_mWK-21" target="bW7ZYCRdu0uEWTsb5J2A-1">
                    <mxGeometry relative="1" as="geometry">
                        <Array as="points">
                            <mxPoint x="110" y="710"/>
                        </Array>
                    </mxGeometry>
                </mxCell>
                <mxCell id="mABddNdtJLSnhPPc_mWK-21" value="" style="verticalLabelPosition=bottom;verticalAlign=top;html=1;shape=mxgraph.flowchart.on-page_reference;direction=south;" vertex="1" parent="EHFNYhh7UBXqCngU-eui-1">
                    <mxGeometry x="100" y="590" width="20" height="20" as="geometry"/>
                </mxCell>
            </root>
        </mxGraphModel>
    </diagram>
</mxfile>